HIERARCHY
ROOT Hips
{
	OFFSET 0.00000 0.00000 0.00000
	CHANNELS 6 Xposition Yposition Zposition Zrotation Yrotation Xrotation 
	JOINT LHipJoint
	{
		OFFSET 0 0 0
		CHANNELS 3 Zrotation Yrotation Xrotation
		JOINT LeftUpLeg
		{
			OFFSET 1.73240 -1.89999 0.57994
			CHANNELS 3 Zrotation Yrotation Xrotation
			JOINT LeftLeg
			{
				OFFSET 2.43106 -6.67930 0.00000
				CHANNELS 3 Zrotation Yrotation Xrotation
				JOINT LeftFoot
				{
					OFFSET 2.78854 -7.66147 0.00000
					CHANNELS 3 Zrotation Yrotation Xrotation
					JOINT LeftToeBase
					{
						OFFSET 0.17314 -0.47571 2.01064
						CHANNELS 3 Zrotation Yrotation Xrotation
						End Site
						{
							OFFSET 0.00000 -0.00000 1.04147
						}
					}
				}
			}
		}
	}
	JOINT RHipJoint
	{
		OFFSET 0 0 0
		CHANNELS 3 Zrotation Yrotation Xrotation
		JOINT RightUpLeg
		{
			OFFSET -1.57078 -1.89998 0.57994
			CHANNELS 3 Zrotation Yrotation Xrotation
			JOINT RightLeg
			{
				OFFSET -2.50166 -6.87326 0.00000
				CHANNELS 3 Zrotation Yrotation Xrotation
				JOINT RightFoot
				{
					OFFSET -2.77304 -7.61886 0.00000
					CHANNELS 3 Zrotation Yrotation Xrotation
					JOINT RightToeBase
					{
						OFFSET -0.23513 -0.64602 2.11039
						CHANNELS 3 Zrotation Yrotation Xrotation
						End Site
						{
							OFFSET -0.00000 -0.00000 1.10597
						}
					}
				}
			}
		}
	}
	JOINT LowerBack
	{
		OFFSET 0 0 0
		CHANNELS 3 Zrotation Yrotation Xrotation
		JOINT Spine
		{
			OFFSET -0.00908 2.00015 -0.35323
			CHANNELS 3 Zrotation Yrotation Xrotation
			JOINT Spine1
			{
				OFFSET 0.05647 2.02258 0.04270
				CHANNELS 3 Zrotation Yrotation Xrotation
				JOINT Neck
				{
					OFFSET 0 0 0
					CHANNELS 3 Zrotation Yrotation Xrotation
					JOINT Neck1
					{
						OFFSET -0.02074 1.73711 0.13117
						CHANNELS 3 Zrotation Yrotation Xrotation
						JOINT Head
						{
							OFFSET -0.02359 1.73615 -0.24320
							CHANNELS 3 Zrotation Yrotation Xrotation
							End Site
							{
								OFFSET -0.00579 1.75982 -0.09688
							}
						}
					}
				}
				JOINT LeftShoulder
				{
					OFFSET 0 0 0
					CHANNELS 3 Zrotation Yrotation Xrotation
					JOINT LeftArm
					{
						OFFSET 3.20537 1.11432 -0.27680
						CHANNELS 3 Zrotation Yrotation Xrotation
						JOINT LeftForeArm
						{
							OFFSET 5.05923 -0.00000 -0.00000
							CHANNELS 3 Zrotation Yrotation Xrotation
							JOINT LeftHand
							{
								OFFSET 3.51996 -0.00000 0.00000
								CHANNELS 3 Zrotation Yrotation Xrotation
								JOINT LeftFingerBase
								{
									OFFSET 0 0 0
									CHANNELS 3 Zrotation Yrotation Xrotation
									JOINT LeftHandIndex1
									{
										OFFSET 0.65238 -0.00000 0.00000
										CHANNELS 3 Zrotation Yrotation Xrotation
										End Site
										{
											OFFSET 0.52596 -0.00000 0.00000
										}
									}
								}
								JOINT LThumb
								{
									OFFSET 0 0 0
									CHANNELS 3 Zrotation Yrotation Xrotation
									End Site
									{
										OFFSET 0.53399 -0.00000 0.53399
									}
								}
							}
						}
					}
				}
				JOINT RightShoulder
				{
					OFFSET 0 0 0
					CHANNELS 3 Zrotation Yrotation Xrotation
					JOINT RightArm
					{
						OFFSET -2.96983 1.42602 -0.37449
						CHANNELS 3 Zrotation Yrotation Xrotation
						JOINT RightForeArm
						{
							OFFSET -5.40867 -0.00000 0.00000
							CHANNELS 3 Zrotation Yrotation Xrotation
							JOINT RightHand
							{
								OFFSET -3.12964 -0.00000 0.00000
								CHANNELS 3 Zrotation Yrotation Xrotation
								JOINT RightFingerBase
								{
									OFFSET 0 0 0
									CHANNELS 3 Zrotation Yrotation Xrotation
									JOINT RightHandIndex1
									{
										OFFSET -0.83271 -0.00000 0.00000
										CHANNELS 3 Zrotation Yrotation Xrotation
										End Site
										{
											OFFSET -0.67135 -0.00000 0.00000
										}
									}
								}
								JOINT RThumb
								{
									OFFSET 0 0 0
									CHANNELS 3 Zrotation Yrotation Xrotation
									End Site
									{
										OFFSET -0.68160 -0.00000 0.68160
									}
								}
							}
						}
					}
				}
			}
		}
	}
}
MOTION
Frames: 7
Frame Time: .0083333
1.4857 17.9036 5.1048 360.6930 -28.8351 -2.7760 0.0000 0.0000 0.0000 -24.9616 -1.0955 -9.3808 2.9275 10.5767 30.8652 0.5804 11.7276 -23.0225 0.0117 0.6978 1.9175 0.0000 0.0000 0.0000 19.5688 -8.9982 -20.3579 -6.6783 -15.0549 47.6469 -1.0878 -11.1968 -26.6787 -0.3974 -4.0477 11.2109 -4.2156 -1.6390 19.0847 2.2954 -2.8767 1.1004 5.6823 -1.1591 -9.1784 -5.6823 -6.4328 -9.7459 1.5256 -8.3517 21.0190 0.5817 -4.2889 8.4480 -0.0000 -0.0000 0.0000 -87.2468 21.9979 10.3471 30.3052 -41.1535 -11.6099 -0.0000 0.0000 -12.6651 17.8615 50.9188 14.0442 -7.1250 0.0000 -0.0000 -55.5299 77.2786 -44.2240 -0.0000 -0.0000 0.0000 76.3963 -13.2549 -29.9888 -146.0544 44.0444 -105.9248 0.0000 -0.0000 -29.8736 15.5763 1.0258 0.2859 7.1250 -0.0000 -0.0000 31.2250 -27.8846 15.2024
1.4712 17.8939 5.1172 360.8520 -29.8817 -2.9454 0.0000 0.0000 0.0000 -25.1332 -1.0160 -9.1838 2.9361 10.5909 30.9121 0.5517 12.3596 -23.4199 0.0125 0.7224 1.9852 0.0000 0.0000 0.0000 19.5198 -8.7584 -19.9903 -6.6606 -15.0393 47.5786 -1.0492 -11.3992 -26.5640 -0.3580 -3.8439 10.6379 -4.2049 -1.5000 19.0032 2.1536 -2.7021 1.0306 5.4735 -1.0753 -9.2400 -5.4716 -6.6014 -9.4347 1.4971 -8.6407 20.9617 0.5191 -4.4174 8.3712 -0.0000 -0.0000 0.0000 -86.7765 22.1080 10.9173 30.2859 -41.1372 -11.5972 -0.0000 0.0000 -12.8655 18.1731 50.9846 14.3084 -7.1250 0.0000 -0.0000 -55.6069 77.4330 -44.4406 -0.0000 -0.0000 0.0000 76.2770 -13.4179 -29.2363 -148.6027 42.0613 -107.6649 0.0000 -0.0000 -25.1734 15.6844 1.4745 0.4140 7.1250 -0.0000 -0.0000 31.1662 -27.4779 15.5278
1.4558 17.8992 5.1225 361.0240 -30.7117 -2.9890 0.0000 0.0000 0.0000 -25.2536 -1.0327 -9.1674 2.9521 10.6171 30.9991 0.5665 12.6893 -23.8972 0.0190 0.8906 2.4480 0.0000 0.0000 0.0000 19.3945 -9.2266 -19.9450 -6.6191 -15.0025 47.4185 -0.9828 -11.2068 -25.8879 -0.2738 -3.3658 9.2989 -4.2259 -1.6454 18.8514 2.1136 -2.8982 0.8808 5.4888 -1.1634 -9.2988 -5.7227 -6.5646 -9.2131 1.6145 -8.5938 21.0153 0.6095 -4.4089 8.3652 -0.0000 -0.0000 0.0000 -86.7063 22.2944 11.0226 30.1607 -41.0308 -11.5150 -0.0000 0.0000 -13.0662 18.0815 51.0538 14.2477 -7.1250 0.0000 -0.0000 -55.9497 77.4256 -44.7343 -0.0000 -0.0000 0.0000 75.6528 -13.7727 -27.2176 -151.0160 40.0065 -109.2496 0.0000 -0.0000 -21.6060 14.2313 1.3438 0.3408 7.1250 -0.0000 -0.0000 30.2613 -27.7014 14.7300
1.4410 17.9003 5.1089 361.0410 -31.4909 -2.8592 0.0000 0.0000 0.0000 -25.1430 -0.8349 -9.4701 2.9839 10.6689 31.1712 0.5526 12.9629 -24.0665 0.0064 0.5168 1.4201 0.0000 0.0000 0.0000 19.4323 -9.1168 -19.6813 -6.5718 -14.9605 47.2357 -1.1667 -9.7571 -26.0868 -0.4700 -4.3970 12.1962 -4.2855 -2.2972 18.7764 2.3039 -3.7545 0.5819 5.9579 -1.5517 -9.4666 -6.7899 -6.0456 -8.6764 1.9409 -7.8079 20.9892 0.9906 -4.1013 8.2901 0.0000 0.0000 0.0000 -87.7474 22.8278 9.3605 30.0357 -40.9240 -11.4330 -0.0000 0.0000 -12.8367 17.9979 51.0381 14.1771 -7.1250 0.0000 -0.0000 -55.9357 77.3851 -44.6827 0.0000 0.0000 0.0000 74.2342 -13.4325 -24.2370 -152.9114 38.2636 -110.4460 0.0000 -0.0000 -18.0393 14.3552 1.8550 0.4747 7.1250 -0.0000 -0.0000 30.2016 -27.2372 15.0883
1.4250 17.8979 5.0981 360.7580 -32.5113 -2.7257 0.0000 0.0000 0.0000 -24.7911 -0.4819 -9.6250 3.0258 10.7367 31.3970 0.5203 13.4501 -24.3130 0.0012 0.2202 0.6050 0.0000 0.0000 0.0000 19.9196 -9.0541 -19.5386 -6.4822 -14.8799 46.8875 -0.9734 -10.7051 -25.3757 -0.1751 -2.6954 7.4320 -3.6843 -2.1128 18.7581 2.0063 -3.4095 0.6625 5.1940 -1.4231 -9.4645 -5.9597 -6.3893 -8.8498 1.9237 -8.4121 20.9681 0.7818 -4.3222 8.3008 -0.0000 0.0000 0.0000 -86.5428 22.3781 10.1932 29.8152 -40.7345 -11.2888 -0.0000 0.0000 -12.5808 17.8472 51.0105 14.0501 -7.1250 0.0000 -0.0000 -55.9146 77.3124 -44.5937 -0.0000 0.0000 0.0000 74.8209 -13.8119 -22.6073 -155.0200 36.1835 -111.7219 0.0000 -0.0000 -14.8761 12.7761 1.8107 0.4105 7.1250 -0.0000 -0.0000 29.1767 -27.3817 14.2973
1.4077 17.8944 5.0984 360.4680 -33.8094 -2.6818 0.0000 0.0000 0.0000 -24.4737 -0.1089 -9.6153 3.0643 10.7984 31.6031 0.5857 13.7040 -25.1396 0.0214 0.9453 2.5982 0.0000 0.0000 0.0000 20.3417 -8.8343 -19.1896 -6.3877 -14.7938 46.5187 -0.9283 -10.8956 -25.1840 -0.0658 -1.6556 4.5547 -3.4755 -1.9387 18.8339 2.0696 -3.1318 0.6445 5.0798 -1.2947 -9.5649 -5.8578 -6.5463 -8.8832 1.9020 -8.6474 21.0119 0.7310 -4.4284 8.3257 0.0000 0.0000 0.0000 -86.3720 22.3627 10.4198 29.8626 -40.7753 -11.3198 -0.0000 0.0000 -12.3346 17.7575 50.8735 13.9517 -7.1250 0.0000 -0.0000 -55.4110 77.2170 -44.0603 0.0000 0.0000 0.0000 74.7043 -14.0622 -20.1399 -156.7459 34.3655 -112.7188 0.0000 -0.0000 -10.8476 11.9184 2.1524 0.4542 7.1250 -0.0000 -0.0000 28.5178 -27.1275 14.0797
1.3864 17.8977 5.0887 360.3710 -34.9893 -2.6025 0.0000 0.0000 0.0000 -24.3013 -0.0926 -9.6955 3.0981 10.8522 31.7831 0.6668 13.9809 -26.0894 0.0646 1.6395 4.5104 0.0000 0.0000 0.0000 20.6209 -8.4625 -18.9433 -6.2765 -14.6911 46.0816 -0.9418 -10.6594 -25.0840 -0.0424 -1.3295 3.6560 -3.5935 -1.7945 18.9548 2.1535 -2.9631 0.6248 5.2051 -1.2030 -9.6621 -5.6974 -6.6143 -9.3375 1.9242 -8.7552 21.1605 0.6819 -4.4591 8.4560 -0.0000 -0.0000 0.0000 -86.2557 22.1489 10.6635 29.7891 -40.7119 -11.2718 -0.0000 0.0000 -12.2573 17.9475 50.7639 14.0837 -7.1250 0.0000 -0.0000 -54.8446 77.2452 -43.5929 -0.0000 -0.0000 0.0000 74.5072 -14.1301 -17.3500 -158.1624 32.7930 -113.5023 0.0000 -0.0000 -6.7281 11.0538 2.5017 0.4886 7.1250 -0.0000 -0.0000 27.8518 -26.8622 13.8617
